<svg xmlns="http://www.w3.org/2000/svg" viewBox="-2 -2 4 4"><path d="M1 0A1 1 0 0 1 0.980261807626078 0.19770378982117215L0.6861832653382546 0.1383926528748205A0.7 0.7 0 0 1 0.6198192179572469 0.32530622043063795L0.88545602565321 0.4647231720437685A1 1 0 0 1 0.7761011919494488 0.630608388664982L0.5432708343646141 0.4414258720654874A0.7 0.7 0 0 1 0.3976453227118092 0.5760887061255595L0.568064746731156 0.8229838658936565A1 1 0 0 1 0.394145146230478 0.9190482053205673L0.2759016023613346 0.6433337437243971A0.7 0.7 0 0 1 0.08437567617872632 0.6948962118686379L0.12053668025532333 0.9927088740980543A1 1 0 0 1 -0.07810480252596434 0.9969451538687476L-0.054673361768175034 0.6978616077081233A0.7 0.7 0 0 1 -0.2482234209297748 0.6545113698797906L-0.35460488704253545 0.9350162426854153A1 1 0 0 1 -0.5324618822886165 0.8464539821571307L-0.3727233176020315 0.5925177875099915A0.7 0.7 0 0 1 -0.5239575237197708 0.464185860768557L-0.7485107481711012 0.6631226582407957A1 1 0 0 1 -0.864838361680247 0.5020504040096246L-0.6053868531761728 0.35143528280673725A0.7 0.7 0 0 1 -0.6796592721982366 0.16752096500129077L-0.9709418174260525 0.23931566428755827A1 1 0 0 1 -0.9990907948430332 0.042633128666770326L-0.6993635563901232 0.029843190066739227A0.7 0.7 0 0 1 -0.679659272198237 -0.16752096500129024L-0.9709418174260528 -0.23931566428755752A1 1 0 0 1 -0.9044635672565904 -0.42655088266874397L-0.6331244970796133 -0.29858561786812077A0.7 0.7 0 0 1 -0.5239575237197713 -0.46418586076855667L-0.748510748171102 -0.6631226582407953A1 1 0 0 1 -0.6026346363792573 -0.7980172272802397L-0.4218442454654801 -0.5586120590961677A0.7 0.7 0 0 1 -0.24822342092977553 -0.6545113698797907L-0.3546048870425365 -0.9350162426854154A1 1 0 0 1 -0.16274937284209856 -0.986667442271967L-0.11392456098946899 -0.6906672095903769A0.7 0.7 0 0 1 0.08437567617872574 -0.6948962118686385L0.12053668025532249 -0.992708874098055A1 1 0 0 1 0.3144198106706233 -0.9492840368708679L0.2200938674694363 -0.6644988258096075A0.7 0.7 0 0 1 0.39764532271180897 -0.5760887061255603L0.5680647467311557 -0.8229838658936577A1 1 0 0 1 0.7195592047281882 -0.6944310987354607L0.5036914433097317 -0.48610176911482245A0.7 0.7 0 0 1 0.6198192179572473 -0.32530622043063884L0.8854560256532104 -0.4647231720437698A1 1 0 0 1 0.9598562566109887 -0.2804923646817179L0.6718993796276921 -0.19634465527720252A0.7 0.7 0 0 1 0.7000000000000007 -6.994405055138486e-16z" fill="none" stroke="black" stroke-width="0.05" stroke-linejoin="round"></path></svg>