<svg xmlns="http://www.w3.org/2000/svg" viewBox="-2 -2 4 4"><path d="M1 0A1 1 0 0 1 0.987989849476809 0.15451879280784048L0.7569185255006003 0.25898715364665675A0.8 0.8 0 0 1 0.6928203230275509 0.39999999999999997L0.766044443118978 0.6427876096865393A1 1 0 0 1 0.6575213685690637 0.7534358963276607L0.41335949692149043 0.6849335196242132A0.8 0.8 0 0 1 0.2736161146605351 0.7517540966287268L0.17364817766693044 0.9848077530122081A1 1 0 0 1 0.01939133177182445 0.9998119704485015L-0.12361503424627232 0.7903918795814473A0.8 0.8 0 0 1 -0.2736161146605349 0.7517540966287268L-0.4999999999999999 0.8660254037844387A1 1 0 0 1 -0.6278121246720985 0.7783649119241601L-0.6027487170621285 0.526017094855251A0.8 0.8 0 0 1 -0.6928203230275508 0.40000000000000013L-0.9396926207859082 0.3420201433256689A1 1 0 0 1 -0.9812553106273846 0.1927122605480899L-0.799849576358801 0.015513065417459693A0.8 0.8 0 0 1 -0.7878462024097664 -0.13891854213354407L-0.9396926207859083 -0.34202014332566844A1 1 0 0 1 -0.8755582313020909 -0.4831125992966382L-0.6226919295393281 -0.5022496997376786A0.8 0.8 0 0 1 -0.5142300877492316 -0.6128355544951822L-0.5000000000000002 -0.8660254037844383A1 1 0 0 1 -0.3601777248047107 -0.9328837047320002L-0.15416980843847203 -0.7850042485019075A0.8 0.8 0 0 1 -3.3306690738754696e-16 -0.7999999999999998L0.1736481776669299 -0.9848077530122079A1 1 0 0 1 0.3237339420583205 -0.9461481568757504L0.3864900794373104 -0.7004465850416727A0.8 0.8 0 0 1 0.5142300877492311 -0.6128355544951826L0.7660444431189775 -0.6427876096865395A1 1 0 0 1 0.856166899530266 -0.5166993711518633L0.7463069637856001 -0.2881421798437686A0.8 0.8 0 0 1 0.7878462024097662 -0.13891854213354465z" fill="none" stroke="black" stroke-width="0.05" stroke-linejoin="round"></path><circle cx="0" cy="0" r="0.6" fill="none" stroke="black" stroke-width="0.05" stroke-linejoin="round"></circle></svg>