<svg xmlns="http://www.w3.org/2000/svg" viewBox="-2 -2 4 4"><path d="M1 0A1 1 0 0 1 0.9938421201131816 0.110805416333933L0.8272538087921414 0.19532315745680273A0.85 0.85 0 0 1 0.7947638062826025 0.30141415398615523L0.8854560256532097 0.46472317204376845A1 1 0 0 1 0.828509649243842 0.5599747861375952L0.6417256724326401 0.5573940808269098A0.85 0.85 0 0 1 0.5636542595046758 0.6362341359454358L0.5680647467311557 0.8229838658936561A1 1 0 0 1 0.47337560235639303 0.8808606808648695L0.30918591815153684 0.7917727376064363A0.85 0.85 0 0 1 0.20341831464442403 0.8253005448121439L0.120536680255323 0.9927088740980536A1 1 0 0 1 0.00979690976353019 0.9999520091279803L-0.09418460388384299 0.8447658020962041A0.85 0.85 0 0 1 -0.20341831464442398 0.8253005448121439L-0.35460488704253545 0.9350162426854145A1 1 0 0 1 -0.4560261367905958 0.889966382827938L-0.47597856821695583 0.7042332018572655A0.85 0.85 0 0 1 -0.5636542595046755 0.6362341359454357L-0.7485107481711005 0.6631226582407949A1 1 0 0 1 -0.817379091116706 0.5761001834795978L-0.7487315787351387 0.40236926200293394A0.85 0.85 0 0 1 -0.794763806282602 0.30141415398615506L-0.9709418174260512 0.2393156642875576A1 1 0 0 1 -0.991480346153867 0.1302563748559215L-0.8499592077587829 0.008327373299000684A0.85 0.85 0 0 1 -0.8438025429833451 -0.10245617821702444L-0.9709418174260511 -0.23931566428755746A1 1 0 0 1 -0.9384454025206378 -0.3454275994877597L-0.7564714254037469 -0.3876222162720062A0.85 0.85 0 0 1 -0.6995362860096073 -0.48285503472148184L-0.7485107481711003 -0.6631226582407944A1 1 0 0 1 -0.6704239266630345 -0.7419782736426423L-0.48968515595765794 -0.6947722274491999A0.85 0.85 0 0 1 -0.39501469623720287 -0.7526376218052275L-0.35460488704253534 -0.9350162426854138A1 1 0 0 1 -0.2488164086911016 -0.9685506671135282L-0.11071791862753333 -0.8427582942307867A0.85 0.85 0 0 1 -1.1796119636642288e-16 -0.8499999999999991L0.12053668025532277 -0.9927088740980529A1 1 0 0 1 0.22979194994917929 -0.9732397750495771L0.2936134595645956 -0.7976785921425419A0.85 0.85 0 0 1 0.39501469623720264 -0.7526376218052275L0.568064746731155 -0.8229838658936555A1 1 0 0 1 0.6557577421493049 -0.754971379332517L0.6306815325962459 -0.5698603376635792A0.85 0.85 0 0 1 0.6995362860096069 -0.48285503472148184L0.8854560256532087 -0.464723172043768A1 1 0 0 1 0.9314973383605124 -0.3637481390018078L0.8232680670464988 -0.21149394738743627A0.85 0.85 0 0 1 0.8438025429833447 -0.10245617821702452z" fill="none" stroke="black" stroke-width="0.05" stroke-linejoin="round"></path></svg>