<svg xmlns="http://www.w3.org/2000/svg" viewBox="-2 -2 4 4"><path d="M1 0A1 1 0 0 1 1 0L0.323606797749979 0.23511410091698925A0.4 0.4 0 0 1 0.323606797749979 0.23511410091698925L0.30901699437494745 0.9510565162951536A1 1 0 0 1 0.30901699437494745 0.9510565162951536L-0.12360679774997896 0.3804226065180615A0.4 0.4 0 0 1 -0.12360679774997896 0.3804226065180615L-0.8090169943749475 0.5877852522924731A1 1 0 0 1 -0.8090169943749475 0.5877852522924731L-0.4 0A0.4 0.4 0 0 1 -0.4 0L-0.8090169943749475 -0.5877852522924731A1 1 0 0 1 -0.8090169943749475 -0.5877852522924731L-0.12360679774997899 -0.3804226065180615A0.4 0.4 0 0 1 -0.12360679774997899 -0.3804226065180615L0.3090169943749474 -0.9510565162951536A1 1 0 0 1 0.3090169943749474 -0.9510565162951536L0.323606797749979 -0.23511410091698925A0.4 0.4 0 0 1 0.323606797749979 -0.23511410091698925z" fill="none" stroke="black" stroke-width="0.05" stroke-linejoin="miter"></path></svg>